<?xml version="1.0" encoding="UTF-8"?>
<svg id="Calque_1" data-name="Calque 1" xmlns="http://www.w3.org/2000/svg" xmlns:xlink="http://www.w3.org/1999/xlink" version="1.1" viewBox="0 0 2000 2000">
  <defs>
    <style>
      .cls-1 {
        clip-path: url(#clippath);
      }

      .cls-2 {
        fill: none;
      }

      .cls-2, .cls-3, .cls-4, .cls-5, .cls-6, .cls-7, .cls-8, .cls-9, .cls-10, .cls-11, .cls-12, .cls-13 {
        stroke-width: 0px;
      }

      .cls-3 {
        fill: url(#Dégradé_sans_nom_13-2);
      }

      .cls-14 {
        clip-path: url(#clippath-1);
      }

      .cls-15 {
        clip-path: url(#clippath-4);
      }

      .cls-16 {
        clip-path: url(#clippath-3);
      }

      .cls-17 {
        clip-path: url(#clippath-2);
      }

      .cls-18 {
        clip-path: url(#clippath-7);
      }

      .cls-19 {
        clip-path: url(#clippath-8);
      }

      .cls-20 {
        clip-path: url(#clippath-6);
      }

      .cls-21 {
        clip-path: url(#clippath-5);
      }

      .cls-22 {
        clip-path: url(#clippath-9);
      }

      .cls-4 {
        fill: url(#Dégradé_sans_nom_9);
      }

      .cls-5 {
        fill: url(#Dégradé_sans_nom_9-8);
      }

      .cls-6 {
        fill: url(#Dégradé_sans_nom_9-7);
      }

      .cls-7 {
        fill: url(#Dégradé_sans_nom_9-5);
      }

      .cls-8 {
        fill: url(#Dégradé_sans_nom_9-6);
      }

      .cls-9 {
        fill: url(#Dégradé_sans_nom_9-3);
      }

      .cls-10 {
        fill: url(#Dégradé_sans_nom_9-4);
      }

      .cls-11 {
        fill: url(#Dégradé_sans_nom_9-9);
      }

      .cls-12 {
        fill: url(#Dégradé_sans_nom_9-2);
      }

      .cls-23 {
        fill: url(#Dégradé_sans_nom_5);
      }

      .cls-24 {
        fill: url(#Dégradé_sans_nom_5-2);
      }

      .cls-25 {
        fill: url(#Dégradé_sans_nom_5-3);
      }

      .cls-13 {
        fill: url(#Dégradé_sans_nom_13);
      }
    </style>
    <clipPath id="clippath">
      <path class="cls-2" d="M148.3,1029.9v63h26.7c4.6,0,7.9,4.3,6.9,8.7l-20,83.6c-4.8,20.1-.3,40.8,12.4,57.1,13,16.6,33.3,25.9,54.4,25.9h112.7v-63h-114.1c-1.4,0-2.6-.6-3.5-1.7-.8-1-1-2.4-.7-3.7l22.5-93.7c4.5-18.7,0-38.2-12-53.2-12-14.8-30.4-22.9-49.4-22.9h-35.8Z"/>
    </clipPath>
    <linearGradient id="Dégradé_sans_nom_9" data-name="Dégradé sans nom 9" x1="27.1" y1="1992.6" x2="35.5" y2="1992.6" gradientTransform="translate(55239.8 2030.3) rotate(-90) scale(27.6 -27.6)" gradientUnits="userSpaceOnUse">
      <stop offset="0" stop-color="#b0d40e"/>
      <stop offset="1" stop-color="#51981e"/>
    </linearGradient>
    <clipPath id="clippath-1">
      <path class="cls-2" d="M148.3,1061v31.9h26.7c4.6,0,7.9,4.3,6.9,8.7l-20,83.6c-4.8,20.1-.3,40.8,12.4,57.1,13,16.6,33.3,25.9,54.4,25.9h112.7v-32h-113.3c-24.5,0-42.5-22.9-36.8-46.7l22-92.5c4.4-18.4-9.5-36-28.4-36h-36.6Z"/>
    </clipPath>
    <linearGradient id="Dégradé_sans_nom_9-2" data-name="Dégradé sans nom 9" x1="-35.9" y1="2010.6" x2="-27.6" y2="2010.6" gradientTransform="translate(-49574.7 1951.4) rotate(90) scale(24.8 -24.8)" xlink:href="#Dégradé_sans_nom_9"/>
    <clipPath id="clippath-2">
      <path class="cls-2" d="M306.2,854.7c-38.4,0-71.5,26.1-80.4,63.4l-24.1,100.5c-1.6,6.7-7.5,11.3-14.4,11.3h-39v63h39c36.1,0,67.2-24.5,75.6-59.6l24.1-100.5c2.1-8.9,10-15.1,19.2-15.1h35.2v-63h-35.2Z"/>
    </clipPath>
    <linearGradient id="Dégradé_sans_nom_9-3" data-name="Dégradé sans nom 9" x1="-21" y1="2005.6" x2="-12.6" y2="2005.6" gradientTransform="translate(-100171.6 1900.9) rotate(90) scale(50.1 -50.1)" xlink:href="#Dégradé_sans_nom_9"/>
    <clipPath id="clippath-3">
      <path class="cls-2" d="M306.2,854.7c-38.4,0-71.5,26.1-80.4,63.4l-24.1,100.5c-1.6,6.7-7.5,11.3-14.4,11.3h-39v31.1h41.9c19.7,0,36.8-13.4,41.4-32.5l25.9-106.4c5.1-21.1,24.1-36,45.8-36h38.1v-31.4h-35.2Z"/>
    </clipPath>
    <linearGradient id="Dégradé_sans_nom_9-4" data-name="Dégradé sans nom 9" x1="35.3" y1="1992.4" x2="43.7" y2="1992.4" gradientTransform="translate(53135.8 2003.2) rotate(-90) scale(26.5 -26.5)" xlink:href="#Dégradé_sans_nom_9"/>
    <clipPath id="clippath-4">
      <path class="cls-2" d="M661,1029.9c-19,0-37.5,8.1-49.4,22.9-12.1,15-16.5,34.5-12,53.2l22.4,93.7c.3,1.3,0,2.6-.7,3.7-.9,1.2-2,1.7-3.5,1.7h-114.1v63h112.7c21.1,0,41.4-9.2,54.4-25.9,12.7-16.2,17.2-37,12.4-57.1l-20-83.6c-1.1-4.4,2.3-8.7,6.9-8.7h26.7v-63h-35.8Z"/>
    </clipPath>
    <linearGradient id="Dégradé_sans_nom_9-5" data-name="Dégradé sans nom 9" y1="2020.7" y2="2020.7" gradientTransform="translate(-55172.2 2030.3) rotate(-90) scale(27.6)" xlink:href="#Dégradé_sans_nom_9"/>
    <clipPath id="clippath-5">
      <path class="cls-2" d="M660.1,1061c-18.9,0-32.8,17.6-28.4,36l22.1,92.5c5.7,23.8-12.4,46.7-36.8,46.7h-113.3v32h112.7c21.1,0,41.4-9.2,54.4-25.9,12.7-16.2,17.2-37,12.4-57.1l-20-83.6c-1.1-4.4,2.3-8.7,6.9-8.7h26.7v-31.9h-36.6Z"/>
    </clipPath>
    <linearGradient id="Dégradé_sans_nom_9-6" data-name="Dégradé sans nom 9" x1="-35.9" y1="1979.2" x2="-27.6" y2="1979.2" gradientTransform="translate(49642.3 1951.4) rotate(90) scale(24.8)" xlink:href="#Dégradé_sans_nom_9"/>
    <clipPath id="clippath-6">
      <path class="cls-2" d="M503.7,854.7v63h35.2c9.2,0,17,6.2,19.2,15.1l24.1,100.5c8.4,35.1,39.5,59.6,75.6,59.6h39v-63h-39c-6.9,0-12.8-4.7-14.4-11.3l-24.1-100.5c-8.9-37.4-42-63.4-80.4-63.4h-35.2Z"/>
    </clipPath>
    <linearGradient id="Dégradé_sans_nom_9-7" data-name="Dégradé sans nom 9" x1="-21" y1="1990" x2="-12.6" y2="1990" gradientTransform="translate(100239.2 1900.9) rotate(90) scale(50.1)" xlink:href="#Dégradé_sans_nom_9"/>
    <clipPath id="clippath-7">
      <path class="cls-2" d="M503.7,854.7v31.4h38.1c21.7,0,40.7,14.9,45.8,36l25.9,106.4c4.6,19.1,21.7,32.5,41.4,32.5h41.9v-31.1h-39c-6.9,0-12.8-4.7-14.4-11.3l-24.1-100.5c-8.9-37.4-42-63.4-80.4-63.4h-35.2Z"/>
    </clipPath>
    <linearGradient id="Dégradé_sans_nom_9-8" data-name="Dégradé sans nom 9" x1="35.3" y1="2021.6" x2="43.7" y2="2021.6" gradientTransform="translate(-53068.2 2003.2) rotate(-90) scale(26.5)" xlink:href="#Dégradé_sans_nom_9"/>
    <clipPath id="clippath-8">
      <path class="cls-2" d="M1651.9,1141.4h44.8v-158.3h-44.8v158.3ZM1145.5,1057.1c0-12,2.9-22,8.7-29.8,5.8-7.8,14.6-11.7,26.5-11.7s7.5.2,10.5.4c3,.3,5.6.7,7.8,1.1v71.6c-2.8,1.6-6.2,3-10.2,4.2-4,1.2-8.3,1.8-12.9,1.8-20.3,0-30.4-12.5-30.4-37.6M1146.5,985.1c-10,3.7-18.5,9-25.4,15.8-6.9,6.8-12.2,15-15.8,24.5-3.6,9.5-5.4,20.1-5.4,31.7,0,23.3,5.8,41.4,17.5,54.3,11.6,12.9,28.4,19.4,50.2,19.4s11.6-.6,16.7-1.7c5.1-1.1,10.1-2.8,14.9-5v5.7c0,8.8-2.7,16-8,21.7-5.3,5.6-14.4,8.4-27.2,8.4s-18.6-.8-26.3-2.4c-7.7-1.6-15.1-3.8-22.1-6.6l-7.8,37.6c8.2,2.8,17.1,5.1,26.8,6.8,9.6,1.7,19.3,2.6,28.9,2.6,27.5,0,47.8-6.3,60.9-18.8,13.1-12.5,19.7-31.7,19.7-57.6v-133c-4-1.2-8.6-2.4-13.7-3.5-5.1-1.1-10.5-2.1-16.1-2.9-5.6-.8-11.3-1.5-17-2-5.7-.5-11.3-.8-16.7-.8-12.6,0-24,1.9-34,5.6M982,1106c-4.7-2.7-7.1-7.6-7.1-14.6s.8-6.6,2.4-9c1.6-2.4,3.8-4.3,6.6-5.7,2.8-1.4,6.1-2.3,9.8-2.9,3.7-.5,7.7-.8,11.9-.8s6.3.2,9.9.6c3.6.4,6.3.8,8.1,1.2v34c-2.4.4-5.6.7-9.6.9-4,.2-8.2.3-12.6.3-8.2,0-14.7-1.4-19.4-4.1M982.3,979.7c-5.1.5-10,1.1-14.6,1.8-4.6.7-8.9,1.5-12.8,2.4-3.9.9-7.2,1.8-9.8,2.6l5.7,36.1c5.4-2,11.8-3.6,19.3-4.7,7.4-1.1,14.9-1.7,22.6-1.7,11.4,0,19.4,2.3,24.1,6.9,4.6,4.6,6.9,10.7,6.9,18.4v4.2c-2.8-.8-6.5-1.4-11-2-4.5-.5-9.7-.8-15.5-.8-8.6,0-16.9.9-25,2.6-8,1.7-15.1,4.5-21.4,8.3-6.2,3.8-11.2,8.9-14.9,15.3-3.7,6.4-5.6,14.2-5.6,23.5s1.6,17.7,4.8,24.4c3.2,6.6,7.8,12,13.8,16.1,6,4.1,13.2,7.1,21.5,8.9,8.3,1.8,17.6,2.7,27.8,2.7,16.3,0,30.1-1,41.5-2.9,11.4-1.9,20.3-3.6,26.8-5v-93.3c0-9.8-1.1-18.8-3.3-26.8-2.2-8-6-14.8-11.3-20.5-5.3-5.6-12.4-9.9-21.2-12.9-8.8-3-19.9-4.5-33.1-4.5s-10.4.3-15.5.8M1327.4,1035c1.3-3.7,3.2-7,5.6-9.8,2.4-2.8,5.4-5.1,9-6.8,3.6-1.7,7.9-2.6,12.9-2.6s9.6.9,13.1,2.7c3.5,1.8,6.4,4.1,8.7,6.9,2.3,2.8,4,6,5.1,9.6,1.1,3.6,1.8,7.3,2,11.1h-59.3c.6-3.8,1.5-7.6,2.9-11.3M1326.2,984.3c-9.1,3.6-17.2,8.9-24.2,15.9-7,7-12.7,15.8-17,26.3-4.3,10.5-6.5,22.8-6.5,36.9s1.7,22.5,5,32.5c3.3,10,8.4,18.7,15.3,26,6.9,7.3,15.6,13.1,26.2,17.3,10.5,4.2,22.9,6.3,37.2,6.3s11.2-.3,16.9-.9c5.6-.6,10.9-1.4,15.8-2.3s9.4-2,13.4-3.2c4-1.2,7.2-2.4,9.6-3.6l-6-36.4c-5,2.2-11.5,4.1-19.4,5.6-7.9,1.5-16,2.3-24.2,2.3-12.8,0-23.1-2.7-30.7-8.1-7.6-5.4-11.9-12.7-12.9-22h101.7c.2-2.4.4-5.2.6-8.3.2-3.1.3-6,.3-8.6,0-26.7-6.5-46.9-19.6-60.6-13-13.7-30.8-20.6-53.2-20.6s-19,1.8-28.1,5.4M1750.3,991.8c-11,8.6-16.5,20.4-16.5,35.2s1.1,14.1,3.3,19.6c2.2,5.4,5.3,10.1,9.3,14,4,3.9,8.9,7.3,14.6,10.1,5.7,2.8,12.1,5.5,19.1,8.1,9,3.4,15.7,6.5,20.2,9.2,4.4,2.7,6.6,5.9,6.6,9.5s-1.7,7.7-5.1,9.3c-3.4,1.6-9.2,2.4-17.5,2.4s-15.8-.9-23.8-2.6c-8-1.7-15.9-4.1-23.5-7.1l-7.5,36.4c3.6,1.6,10.1,3.6,19.4,6,9.3,2.4,21,3.6,35,3.6,21.5,0,38.1-4,49.8-12,11.7-8,17.6-19.8,17.6-35.4s-.8-12.4-2.3-17.4c-1.5-5-4.1-9.5-7.8-13.7-3.7-4.1-8.8-7.9-15.2-11.5-6.4-3.5-14.6-7.1-24.4-10.8-4.8-1.8-8.8-3.5-11.9-5-3.1-1.5-5.6-2.9-7.4-4.2-1.8-1.3-3-2.7-3.6-4.1-.6-1.4-.9-3-.9-4.8,0-7.8,7-11.7,21.1-11.7s14.5.7,20.6,2.1c6.1,1.4,11.8,3,17,4.8l7.8-34.9c-5.2-2-12.2-3.9-21.1-5.6-8.8-1.7-18.1-2.6-27.7-2.6-19.3,0-34.4,4.3-45.4,12.9M803.2,971.4c2.4-.2,5.3-.4,8.6-.6,3.3-.2,6.7-.3,10.1-.3,6.8,0,13,.5,18.7,1.4,5.6.9,10.4,2.5,14.3,4.8,3.9,2.3,6.9,5.4,9,9.2,2.1,3.8,3.2,8.6,3.2,14.4,0,12-4.1,20.3-12.3,24.7-8.2,4.4-20.5,6.6-36.7,6.6h-14.7v-60.2ZM788.7,931.7c-11.4.8-22.3,2.2-32.5,4.2v205.5h46.9v-69.8h14.7c31.3,0,55.4-5.6,72.2-16.7,16.9-11.1,25.3-29.2,25.3-54.3s-8.3-42.8-25-53.7c-16.7-10.9-40.5-16.4-71.6-16.4s-18.7.4-30.1,1.2M1655.4,918c-5.3,4.7-8,11.2-8,19.4s2.7,14.7,8,19.4c5.3,4.7,11.6,7.1,18.8,7.1s13.5-2.4,18.8-7.1c5.3-4.7,8-11.2,8-19.4s-2.7-14.7-8-19.4c-5.3-4.7-11.6-7.1-18.8-7.1s-13.5,2.4-18.8,7.1M1461.7,915.1v174.2c0,8.4.9,16,2.6,22.7,1.7,6.7,4.9,12.4,9.6,17.2,4.7,4.7,11.1,8.4,19.3,11,8.1,2.6,18.7,4,31.7,4.2l6.3-37c-5.4-.4-9.7-1.3-12.9-2.7-3.2-1.4-5.7-3.2-7.4-5.4-1.7-2.2-2.9-4.9-3.5-8.1-.6-3.2-.9-6.8-.9-10.8v-172.4l-44.8,7.2ZM1556.8,915.1v174.2c0,8.4.9,16,2.6,22.7,1.7,6.7,4.9,12.4,9.6,17.2,4.7,4.7,11.1,8.4,19.3,11,8.1,2.6,18.7,4,31.7,4.2l6.3-37c-5.4-.4-9.7-1.3-12.9-2.7-3.2-1.4-5.7-3.2-7.4-5.4-1.7-2.2-2.9-4.9-3.5-8.1-.6-3.2-.9-6.8-.9-10.8v-172.4l-44.8,7.2Z"/>
    </clipPath>
    <linearGradient id="Dégradé_sans_nom_9-9" data-name="Dégradé sans nom 9" x1="-41" y1="2047.7" x2="-32.7" y2="2047.7" gradientTransform="translate(-49781.5 1933.2) rotate(90) scale(24.9 -24.9)" xlink:href="#Dégradé_sans_nom_9"/>
    <clipPath id="clippath-9">
      <path class="cls-2" d="M1366.4,1157.2v10h15.7v42.1h11.7v-42.1h15.7v-10h-43.2ZM1508.9,1157.2v31.5c0,4.2-.9,7.2-2.7,9-1.8,1.8-4.1,2.6-7,2.6s-2.7-.2-3.9-.6c-1.2-.4-2.2-1.1-3-2s-1.5-2.1-2-3.6c-.5-1.5-.7-3.3-.7-5.4v-31.5h-11.7v32.4c0,3.1.4,5.9,1.2,8.4.8,2.5,2.1,4.7,3.8,6.5s3.9,3.3,6.6,4.3c2.7,1,5.8,1.5,9.5,1.5s6.9-.5,9.6-1.5c2.7-1,4.9-2.4,6.7-4.2,1.8-1.8,3.1-4,3.9-6.6.9-2.6,1.3-5.4,1.3-8.4v-32.4h-11.7ZM1710.8,1209.3h11.7v-52.1h-11.7v52.1ZM1607.3,1199.9c-.7,0-1.4,0-1.9-.1v-33c.8-.1,1.6-.2,2.4-.2.9,0,1.7,0,2.5,0,5.9,0,10.2,1.4,12.9,4.2,2.7,2.8,4.1,7,4.1,12.4s-1.4,9.3-4.2,12.3c-2.8,3-7.2,4.4-13.1,4.4s-1.9,0-2.6,0M1602.1,1156.9c-2.9.2-5.8.5-8.5,1v50.8c2.7.6,5.5.9,8.3,1.1,2.8.2,5.3.3,7.4.3,4.6,0,8.8-.6,12.5-1.7,3.7-1.1,6.9-2.8,9.4-5,2.6-2.2,4.6-5,6-8.4,1.4-3.4,2.1-7.3,2.1-11.8s-.7-8.8-2.1-12.1c-1.4-3.4-3.4-6.1-6-8.3-2.6-2.1-5.7-3.7-9.4-4.7-3.6-1-7.7-1.5-12.2-1.5s-4.6,0-7.6.3M1275.8,1157.1c-2.4.7-4.4,1.8-6,3.1-1.7,1.4-2.9,3-3.8,4.9-.9,1.9-1.4,4.1-1.4,6.5s.4,4.5,1.3,6.1c.9,1.7,2,3.1,3.3,4.3,1.4,1.2,2.9,2.2,4.6,2.9,1.7.8,3.4,1.5,5.1,2.1,3.9,1.3,6.7,2.5,8.3,3.7,1.6,1.1,2.4,2.5,2.4,4.2s-.1,1.5-.4,2.2c-.3.7-.7,1.2-1.4,1.7s-1.5.9-2.6,1.1c-1.1.3-2.4.4-4.1.4-3.3,0-6.1-.3-8.4-1-2.3-.7-4.2-1.4-5.8-2.3l-3.3,9.3c.7.4,1.6.8,2.6,1.3,1,.5,2.3.9,3.7,1.3,1.4.4,3.1.7,4.9,1s3.9.4,6.2.4c6.9,0,12-1.3,15.4-4,3.4-2.7,5.1-6.5,5.1-11.3s-.3-4.6-1-6.4c-.7-1.8-1.6-3.3-3-4.6-1.3-1.3-3-2.4-5-3.4-2-1-4.4-2-7.1-3-1.3-.5-2.5-.9-3.6-1.3-1.1-.4-2-.9-2.9-1.4-.8-.5-1.5-1.1-1.9-1.8-.5-.6-.7-1.4-.7-2.4,0-1.6.6-2.8,1.8-3.6,1.2-.8,3.2-1.2,6.1-1.2s4.7.3,6.4.9c1.8.6,3.4,1.2,4.8,2l3.4-9.3c-1.7-.9-3.8-1.7-6.3-2.5s-5.6-1.1-9.1-1.1-5.6.4-8,1.1M1814.1,1198.9c-1.7-.8-3.2-1.9-4.3-3.4-1.2-1.5-2.1-3.2-2.7-5.3-.6-2.1-.9-4.4-.9-6.9s.3-4.8.9-6.9c.6-2.1,1.5-3.9,2.7-5.3,1.2-1.5,2.6-2.6,4.3-3.5s3.7-1.2,5.9-1.2,4.1.4,5.8,1.2c1.7.8,3.2,1.9,4.4,3.4,1.2,1.5,2.1,3.3,2.7,5.3.6,2.1.9,4.4.9,7s-.3,4.9-.9,6.9c-.6,2.1-1.5,3.8-2.7,5.3-1.2,1.5-2.6,2.6-4.4,3.4-1.7.8-3.7,1.2-5.8,1.2s-4.2-.4-5.9-1.2M1810.1,1157.7c-3.1,1.2-5.9,2.9-8.3,5.2-2.4,2.3-4.3,5.2-5.7,8.5s-2.1,7.3-2.1,11.8.7,8.4,2,11.8c1.4,3.4,3.2,6.2,5.6,8.5,2.4,2.3,5.1,4,8.3,5.1,3.2,1.2,6.5,1.7,10.1,1.7s7.1-.6,10.3-1.7c3.2-1.1,5.9-2.9,8.2-5.1,2.3-2.3,4.1-5.1,5.5-8.5,1.3-3.4,2-7.3,2-11.8s-.7-8.4-2-11.8c-1.4-3.4-3.2-6.2-5.6-8.5-2.4-2.3-5.1-4-8.3-5.2-3.2-1.2-6.5-1.7-10.1-1.7s-6.8.6-9.9,1.7"/>
    </clipPath>
    <linearGradient id="Dégradé_sans_nom_13" data-name="Dégradé sans nom 13" x1="-91.5" y1="2154.1" x2="-83.1" y2="2154.1" gradientTransform="translate(-17899.2 1978.1) rotate(90) scale(9 -9)" gradientUnits="userSpaceOnUse">
      <stop offset="0" stop-color="#fc0"/>
      <stop offset=".2" stop-color="#fc0"/>
      <stop offset="1" stop-color="#ea5b10"/>
    </linearGradient>
    <linearGradient id="Dégradé_sans_nom_5" data-name="Dégradé sans nom 5" x1="333.3" y1="921.3" x2="333.3" y2="991.5" gradientUnits="userSpaceOnUse">
      <stop offset="0" stop-color="#fff" stop-opacity="0"/>
      <stop offset="1" stop-color="#e3e3e3" stop-opacity=".5"/>
    </linearGradient>
    <linearGradient id="Dégradé_sans_nom_5-2" data-name="Dégradé sans nom 5" x1="511.7" y1="921.3" x2="511.7" y2="991.5" xlink:href="#Dégradé_sans_nom_5"/>
    <linearGradient id="Dégradé_sans_nom_13-2" data-name="Dégradé sans nom 13" x1="-55.1" y1="2019.9" x2="-46.8" y2="2019.9" gradientTransform="translate(-43462.7 2747.1) rotate(88.9) scale(21.7 -21.7)" xlink:href="#Dégradé_sans_nom_13"/>
    <linearGradient id="Dégradé_sans_nom_5-3" data-name="Dégradé sans nom 5" x1="412.8" y1="988.6" x2="427.2" y2="1251.3" xlink:href="#Dégradé_sans_nom_5"/>
  </defs>
  <g class="cls-1">
    <rect class="cls-4" x="148.3" y="1029.9" width="193.1" height="238.3"/>
  </g>
  <g class="cls-14">
    <rect class="cls-12" x="148.2" y="1061" width="193.1" height="207.2"/>
  </g>
  <g class="cls-17">
    <rect class="cls-9" x="148.3" y="854.7" width="193.1" height="238.3"/>
  </g>
  <g class="cls-16">
    <rect class="cls-10" x="148.3" y="854.7" width="193.1" height="206.3"/>
  </g>
  <g class="cls-15">
    <rect class="cls-7" x="503.7" y="1029.9" width="193.1" height="238.3"/>
  </g>
  <g class="cls-21">
    <rect class="cls-8" x="503.7" y="1061" width="193.1" height="207.2"/>
  </g>
  <g class="cls-20">
    <rect class="cls-6" x="503.7" y="854.7" width="193.1" height="238.3"/>
  </g>
  <g class="cls-18">
    <rect class="cls-5" x="503.7" y="854.7" width="193.1" height="206.3"/>
  </g>
  <g class="cls-19">
    <rect class="cls-11" x="756.2" y="907.9" width="1095.1" height="290"/>
  </g>
  <g class="cls-22">
    <rect class="cls-13" x="1263.7" y="1156" width="582.3" height="54.4"/>
  </g>
  <path class="cls-23" d="M301.3,954.7c0,17.5,14.3,31.9,32,31.9s32-14.4,32-31.9-14.3-32.1-32-32.1-32,14.4-32,32.1"/>
  <path class="cls-24" d="M479.7,954.7c0,17.5,14.3,31.9,32,31.9s32-14.4,32-31.9-14.3-32.1-32-32.1-32,14.4-32,32.1"/>
  <path class="cls-3" d="M321,955.2v-121.1c0-56,45.4-101.3,101.3-101.3,56,0,101.3,45.4,101.3,101.3v121.1c0,6.9-5.6,12.5-12.5,12.5s-12.5-5.6-12.5-12.5v-121.1c0-42.1-34.1-76.2-76.3-76.3-42.1,0-76.2,34.1-76.3,76.3v121.1c0,6.9-5.6,12.5-12.5,12.5s-12.5-5.6-12.5-12.5h0Z"/>
  <path class="cls-25" d="M290.3,999.5l-40.1,181.5c-.6,2.7,1.5,5.3,4.2,5.3h337.9c2.8,0,4.9-2.7,4.2-5.4l-46.2-181.4h-260Z"/>
</svg>